<?xml version="1.0" encoding="utf-8"?>
<!-- Generator: Adobe Illustrator 19.2.0, SVG Export Plug-In . SVG Version: 6.00 Build 0)  -->
<svg version="1.1" id="Layer_1" xmlns="http://www.w3.org/2000/svg" xmlns:xlink="http://www.w3.org/1999/xlink" x="0px" y="0px"
	 viewBox="0 0 38 39" style="enable-background:new 0 0 38 39;" xml:space="preserve">
<style type="text/css">
	.st0{fill:#484848;}
</style>
<g>
	<path class="st0" d="M30.7,7.6L7.2,31.1c-0.3,0.3-0.3,0.8,0,1.1c0.3,0.3,0.8,0.3,1.1,0L31.8,8.8c0.3-0.3,0.3-0.8,0-1.1
		C31.5,7.3,31,7.3,30.7,7.6"/>
	<path class="st0" d="M31.8,31.1L8.4,7.6c-0.3-0.3-0.8-0.3-1.1,0s-0.3,0.8,0,1.1l23.4,23.4c0.3,0.3,0.8,0.3,1.1,0
		C32.1,31.9,32.1,31.4,31.8,31.1"/>
</g>
</svg>
